<svg xmlns="http://www.w3.org/2000/svg" viewBox="0 0 24 24" fill="none" stroke="#0A66C2" stroke-width="2" stroke-linecap="round" stroke-linejoin="round">
  <path d="M13.2 2.2a9.85 9.85 0 0 0-2.4 0l-.8 2.6a7.1 7.1 0 0 0-1.8.8l-2.4-1.3a9.8 9.8 0 0 0-2 1.5l1.1 2.5c-.5.6-.9 1.3-1.1 2l-2.7.5a9.85 9.85 0 0 0 0 2.4l2.7.5c.2.7.6 1.4 1.1 2l-1.1 2.5a9.8 9.8 0 0 0 2 1.5l2.4-1.3c.6.4 1.2.7 1.8.8l.8 2.6a9.85 9.85 0 0 0 2.4 0l.8-2.6c.6-.1 1.2-.4 1.8-.8l2.4 1.3a9.8 9.8 0 0 0 2-1.5l-1.1-2.5c.5-.6.9-1.3 1.1-2l2.7-.5a9.85 9.85 0 0 0 0-2.4l-2.7-.5c-.2-.7-.6-1.4-1.1-2l1.1-2.5a9.8 9.8 0 0 0-2-1.5l-2.4 1.3a7.1 7.1 0 0 0-1.8-.8l-.8-2.6z"/>
  <path d="M12 5L9 19M12 5l3 14M8 11h8M7 15h10M12 5v14"/>
</svg>
